<svg xmlns="http://www.w3.org/2000/svg" viewBox="0 0 36 24" role="img" aria-label="United States">
  <rect width="36" height="24" rx="2" fill="#fff"/>
  <g fill="#b22234"><path d="M0 0h36v2H0zm0 4h36v2H0zm0 4h36v2H0zm0 4h36v2H0zm0 4h36v2H0zm0 4h36v2H0z"/></g>
  <path d="M0 0h16v13H0Z" fill="#3c3b6e"/>
  <g fill="#fff"><circle cx="2" cy="2" r=".65"/><circle cx="6" cy="2" r=".65"/><circle cx="10" cy="2" r=".65"/><circle cx="14" cy="2" r=".65"/><circle cx="4" cy="5" r=".65"/><circle cx="8" cy="5" r=".65"/><circle cx="12" cy="5" r=".65"/><circle cx="2" cy="8" r=".65"/><circle cx="6" cy="8" r=".65"/><circle cx="10" cy="8" r=".65"/><circle cx="14" cy="8" r=".65"/><circle cx="4" cy="11" r=".65"/><circle cx="8" cy="11" r=".65"/><circle cx="12" cy="11" r=".65"/></g>
</svg>